<mxfile host="app.diagrams.net" modified="2023-12-27T05:40:44.790Z" agent="Mozilla/5.0 (Windows NT 10.0; Win64; x64) AppleWebKit/537.36 (KHTML, like Gecko) Chrome/120.0.0.0 Safari/537.36" etag="gFVj10ownJWVwgBVyIE5" version="22.1.12" type="google">
  <diagram name="第 1 页" id="5qdWruiEF5vMZ18b9oNd">
    <mxGraphModel grid="1" page="1" gridSize="10" guides="1" tooltips="1" connect="1" arrows="1" fold="1" pageScale="1" pageWidth="827" pageHeight="1169" math="0" shadow="0">
      <root>
        <mxCell id="0" />
        <mxCell id="1" parent="0" />
        <mxCell id="mHY3J1owhafPt5hw_6A4-4" style="edgeStyle=orthogonalEdgeStyle;rounded=0;orthogonalLoop=1;jettySize=auto;html=1;entryX=0;entryY=0.5;entryDx=0;entryDy=0;strokeWidth=2;" edge="1" parent="1" target="mHY3J1owhafPt5hw_6A4-3">
          <mxGeometry relative="1" as="geometry">
            <mxPoint x="190" y="560" as="sourcePoint" />
          </mxGeometry>
        </mxCell>
        <mxCell id="mHY3J1owhafPt5hw_6A4-1" value="&lt;font style=&quot;font-size: 16px;&quot;&gt;車主&lt;/font&gt;" style="shape=umlActor;verticalLabelPosition=bottom;verticalAlign=top;html=1;outlineConnect=0;strokeWidth=3;" vertex="1" parent="1">
          <mxGeometry x="100" y="490" width="90" height="180" as="geometry" />
        </mxCell>
        <mxCell id="mHY3J1owhafPt5hw_6A4-5" style="edgeStyle=orthogonalEdgeStyle;rounded=0;orthogonalLoop=1;jettySize=auto;html=1;entryX=1;entryY=0.5;entryDx=0;entryDy=0;strokeWidth=2;" edge="1" parent="1" target="mHY3J1owhafPt5hw_6A4-3">
          <mxGeometry relative="1" as="geometry">
            <mxPoint x="630" y="560" as="sourcePoint" />
          </mxGeometry>
        </mxCell>
        <mxCell id="mHY3J1owhafPt5hw_6A4-2" value="&lt;font style=&quot;font-size: 15px;&quot;&gt;管理員&lt;/font&gt;" style="shape=umlActor;verticalLabelPosition=bottom;verticalAlign=top;html=1;outlineConnect=0;strokeWidth=3;" vertex="1" parent="1">
          <mxGeometry x="630" y="490" width="90" height="180" as="geometry" />
        </mxCell>
        <mxCell id="mHY3J1owhafPt5hw_6A4-3" value="&lt;font style=&quot;font-size: 25px;&quot;&gt;入場停車&lt;/font&gt;" style="ellipse;whiteSpace=wrap;html=1;dashed=1;strokeWidth=2;" vertex="1" parent="1">
          <mxGeometry x="328" y="503" width="170" height="113.33" as="geometry" />
        </mxCell>
      </root>
    </mxGraphModel>
  </diagram>
</mxfile>
